<svg xmlns="http://www.w3.org/2000/svg" width="20" height="20" viewBox="0 0 20 20" fill="none">
  <g clip-path="url(#clip0_3962_34903)">
    <rect width="20" height="20" fill="white"/>
    <path d="M15.5418 6.95837L13.2168 9.28337C12.9501 9.55004 13.1334 10 13.5084 10H15.0001C15.0001 12.7584 12.7584 15 10.0001 15C9.34177 15 8.70011 14.875 8.12511 14.6334C7.82511 14.5084 7.48344 14.6 7.25844 14.825C6.83344 15.25 6.98344 15.9667 7.54177 16.1917C8.30011 16.5 9.13344 16.6667 10.0001 16.6667C13.6834 16.6667 16.6668 13.6834 16.6668 10H18.1584C18.5334 10 18.7168 9.55004 18.4501 9.29171L16.1251 6.96671C15.9668 6.80004 15.7001 6.80004 15.5418 6.95837ZM5.00011 10C5.00011 7.24171 7.24177 5.00004 10.0001 5.00004C10.6584 5.00004 11.3001 5.12504 11.8751 5.36671C12.1751 5.49171 12.5168 5.40004 12.7418 5.17504C13.1668 4.75004 13.0168 4.03337 12.4584 3.80837C11.7001 3.50004 10.8668 3.33337 10.0001 3.33337C6.31677 3.33337 3.33344 6.31671 3.33344 10H1.84177C1.46677 10 1.28344 10.45 1.55011 10.7084L3.87511 13.0334C4.04177 13.2 4.30011 13.2 4.46677 13.0334L6.79177 10.7084C7.05011 10.45 6.86677 10 6.49177 10H5.00011Z" fill="black"/>
  </g>
  <defs>
    <clipPath id="clip0_3962_34903">
      <rect width="20" height="20" fill="white"/>
    </clipPath>
  </defs>
</svg>