<svg width="22" height="22" viewBox="0 0 22 22" fill="none" xmlns="http://www.w3.org/2000/svg">
<path d="M21.5002 0.515886C20.8502 -0.134114 19.8002 -0.134114 19.1502 0.515886L11.0002 8.64922L2.8502 0.499219C2.2002 -0.150781 1.1502 -0.150781 0.500195 0.499219C-0.149805 1.14922 -0.149805 2.19922 0.500195 2.84922L8.6502 10.9992L0.500195 19.1492C-0.149805 19.7992 -0.149805 20.8492 0.500195 21.4992C1.1502 22.1492 2.2002 22.1492 2.8502 21.4992L11.0002 13.3492L19.1502 21.4992C19.8002 22.1492 20.8502 22.1492 21.5002 21.4992C22.1502 20.8492 22.1502 19.7992 21.5002 19.1492L13.3502 10.9992L21.5002 2.84922C22.1335 2.21589 22.1335 1.14922 21.5002 0.515886Z" fill="#A9A9A9"/>
</svg>
