<svg xmlns="http://www.w3.org/2000/svg" width="20" height="20" viewBox="0 0 20 20" fill="none">
  <g clip-path="url(#clip0_4122_22743)">
    <rect width="20" height="20" fill="white"/>
    <path d="M8.33366 13.3334H11.667C12.1253 13.3334 12.5003 12.9584 12.5003 12.5V8.33335H13.8253C14.567 8.33335 14.942 7.43335 14.417 6.90835L10.592 3.08335C10.267 2.75835 9.74199 2.75835 9.41699 3.08335L5.59199 6.90835C5.06699 7.43335 5.43366 8.33335 6.17533 8.33335H7.50033V12.5C7.50033 12.9584 7.87533 13.3334 8.33366 13.3334ZM5.00033 15H15.0003C15.4587 15 15.8337 15.375 15.8337 15.8334C15.8337 16.2917 15.4587 16.6667 15.0003 16.6667H5.00033C4.54199 16.6667 4.16699 16.2917 4.16699 15.8334C4.16699 15.375 4.54199 15 5.00033 15Z" fill="black"/>
  </g>
  <defs>
    <clipPath id="clip0_4122_22743">
      <rect width="20" height="20" fill="white"/>
    </clipPath>
  </defs>
</svg>