<svg width="20" height="20" viewBox="0 0 20 20" fill="none" xmlns="http://www.w3.org/2000/svg">
<rect width="20" height="20" fill="white"/>
<path d="M10.0001 1.66699C6.77508 1.66699 4.16675 4.27533 4.16675 7.50033C4.16675 10.9753 7.85008 15.767 9.36675 17.592C9.70008 17.992 10.3084 17.992 10.6417 17.592C12.1501 15.767 15.8334 10.9753 15.8334 7.50033C15.8334 4.27533 13.2251 1.66699 10.0001 1.66699ZM10.0001 9.58366C8.85008 9.58366 7.91675 8.65033 7.91675 7.50033C7.91675 6.35033 8.85008 5.41699 10.0001 5.41699C11.1501 5.41699 12.0834 6.35033 12.0834 7.50033C12.0834 8.65033 11.1501 9.58366 10.0001 9.58366Z" fill="#A9A9A9"/>
</svg>
