<svg width="22" height="21" viewBox="0 0 22 21" fill="none" xmlns="http://www.w3.org/2000/svg">
<g clip-path="url(#clip0_3970_35780)">
<rect width="22" height="21" fill="white"/>
<path d="M14.2084 12.2501H13.4843L13.2276 12.0138C14.3276 10.7888 14.8959 9.11756 14.5843 7.34131C14.1534 4.90881 12.0268 2.96631 9.46008 2.66881C5.58258 2.21381 2.31925 5.32881 2.79592 9.03006C3.10759 11.4801 5.14259 13.5101 7.69092 13.9213C9.55175 14.2188 11.3026 13.6763 12.5859 12.6263L12.8334 12.8713V13.5626L16.7293 17.2813C17.1051 17.6401 17.7193 17.6401 18.0951 17.2813C18.4709 16.9226 18.4709 16.3363 18.0951 15.9776L14.2084 12.2501ZM8.70842 12.2501C6.42592 12.2501 4.58342 10.4913 4.58342 8.31256C4.58342 6.13381 6.42592 4.37506 8.70842 4.37506C10.9909 4.37506 12.8334 6.13381 12.8334 8.31256C12.8334 10.4913 10.9909 12.2501 8.70842 12.2501Z" fill="black"/>
</g>
<defs>
<clipPath id="clip0_3970_35780">
<rect width="22" height="21" fill="white"/>
</clipPath>
</defs>
</svg>
