<svg width="34" height="34" viewBox="0 0 34 34" fill="none" xmlns="http://www.w3.org/2000/svg">
<path d="M17 0.333984C7.79998 0.333984 0.333313 7.80065 0.333313 17.0007C0.333313 26.2007 7.79998 33.6673 17 33.6673C26.2 33.6673 33.6666 26.2007 33.6666 17.0007C33.6666 7.80065 26.2 0.333984 17 0.333984ZM12.4833 24.1507L6.49998 18.1673C5.84998 17.5173 5.84998 16.4673 6.49998 15.8173C7.14998 15.1673 8.19998 15.1673 8.84998 15.8173L13.6666 20.6173L25.1333 9.15065C25.7833 8.50065 26.8333 8.50065 27.4833 9.15065C28.1333 9.80065 28.1333 10.8507 27.4833 11.5007L14.8333 24.1507C14.2 24.8007 13.1333 24.8007 12.4833 24.1507Z" fill="#4EB365"/>
</svg>
