<svg width="22" height="14" viewBox="0 0 22 14" fill="none" xmlns="http://www.w3.org/2000/svg">
<path d="M20.3333 0.333984H1.66659C0.933252 0.333984 0.333252 0.933984 0.333252 1.66732C0.333252 2.40065 0.933252 3.00065 1.66659 3.00065H20.3333C21.0666 3.00065 21.6666 2.40065 21.6666 1.66732C21.6666 0.933984 21.0666 0.333984 20.3333 0.333984ZM1.66659 8.33398H20.3333C21.0666 8.33398 21.6666 7.73398 21.6666 7.00065C21.6666 6.26732 21.0666 5.66732 20.3333 5.66732H1.66659C0.933252 5.66732 0.333252 6.26732 0.333252 7.00065C0.333252 7.73398 0.933252 8.33398 1.66659 8.33398Z" fill="black"/>
<path d="M20.3333 13.6673H1.66659C0.933252 13.6673 0.333252 13.0673 0.333252 12.334C0.333252 11.6007 0.933252 11.0007 1.66659 11.0007H20.3333C21.0666 11.0007 21.6666 11.6007 21.6666 12.334C21.6666 13.0673 21.0666 13.6673 20.3333 13.6673Z" fill="black"/>
</svg>
