<svg width="28" height="28" viewBox="0 0 28 28" fill="none" xmlns="http://www.w3.org/2000/svg">
<path d="M12.6666 7.33268H15.3333V9.99935H12.6666V7.33268ZM14 20.666C14.7333 20.666 15.3333 20.066 15.3333 19.3327V13.9993C15.3333 13.266 14.7333 12.666 14 12.666C13.2666 12.666 12.6666 13.266 12.6666 13.9993V19.3327C12.6666 20.066 13.2666 20.666 14 20.666ZM14 0.666016C6.63996 0.666016 0.666626 6.63935 0.666626 13.9993C0.666626 21.3594 6.63996 27.3327 14 27.3327C21.36 27.3327 27.3333 21.3594 27.3333 13.9993C27.3333 6.63935 21.36 0.666016 14 0.666016ZM14 24.666C8.11996 24.666 3.33329 19.8793 3.33329 13.9993C3.33329 8.11935 8.11996 3.33268 14 3.33268C19.88 3.33268 24.6666 8.11935 24.6666 13.9993C24.6666 19.8793 19.88 24.666 14 24.666Z" fill="black"/>
</svg>
