<svg width="26" height="28" viewBox="0 0 26 28" fill="none" xmlns="http://www.w3.org/2000/svg">
<path d="M22.9067 15.306C22.96 14.8793 23 14.4527 23 13.9993C23 13.546 22.96 13.1193 22.9067 12.6927L25.72 10.4927C25.9734 10.2927 26.04 9.93268 25.88 9.63935L23.2134 5.02602C23.0534 4.73268 22.6934 4.62602 22.4 4.73268L19.08 6.06602C18.3867 5.53268 17.64 5.09268 16.8267 4.75935L16.32 1.22602C16.28 0.906016 16 0.666016 15.6667 0.666016H10.3334C10 0.666016 9.72003 0.906016 9.68003 1.22602L9.17336 4.75935C8.36003 5.09268 7.61336 5.54602 6.92003 6.06602L3.60003 4.73268C3.29336 4.61268 2.9467 4.73268 2.7867 5.02602L0.12003 9.63935C-0.0533034 9.93268 0.0266968 10.2927 0.28003 10.4927L3.09336 12.6927C3.04003 13.1193 3.00003 13.5593 3.00003 13.9993C3.00003 14.4393 3.04003 14.8793 3.09336 15.306L0.28003 17.506C0.0266968 17.706 -0.03997 18.066 0.12003 18.3594L2.7867 22.9727C2.9467 23.266 3.3067 23.3727 3.60003 23.266L6.92003 21.9327C7.61336 22.466 8.36003 22.906 9.17336 23.2393L9.68003 26.7727C9.72003 27.0927 10 27.3327 10.3334 27.3327H15.6667C16 27.3327 16.28 27.0927 16.32 26.7727L16.8267 23.2393C17.64 22.906 18.3867 22.4527 19.08 21.9327L22.4 23.266C22.7067 23.386 23.0534 23.266 23.2134 22.9727L25.88 18.3594C26.04 18.066 25.9734 17.706 25.72 17.506L22.9067 15.306ZM13 18.666C10.4267 18.666 8.33336 16.5727 8.33336 13.9993C8.33336 11.426 10.4267 9.33268 13 9.33268C15.5734 9.33268 17.6667 11.426 17.6667 13.9993C17.6667 16.5727 15.5734 18.666 13 18.666Z" fill="black"/>
</svg>
