<svg width="18" height="18" viewBox="0 0 18 18" fill="none" xmlns="http://www.w3.org/2000/svg">
<path d="M9.00008 0.666992C4.40008 0.666992 0.666748 4.40033 0.666748 9.00033C0.666748 13.6003 4.40008 17.3337 9.00008 17.3337C13.6001 17.3337 17.3334 13.6003 17.3334 9.00033C17.3334 4.40033 13.6001 0.666992 9.00008 0.666992ZM10.1751 14.0753V14.5587C10.1751 15.167 9.67508 15.667 9.06675 15.667H9.05841C8.45008 15.667 7.95008 15.167 7.95008 14.5587V14.0587C6.84175 13.8253 5.85842 13.217 5.44175 12.192C5.25008 11.7337 5.60841 11.2253 6.10841 11.2253H6.30842C6.61675 11.2253 6.86675 11.4337 6.98342 11.7253C7.22508 12.3503 7.85842 12.7837 9.07508 12.7837C10.7084 12.7837 11.0751 11.967 11.0751 11.4587C11.0751 10.767 10.7084 10.117 8.85008 9.67533C6.78341 9.17533 5.36675 8.32533 5.36675 6.61699C5.36675 5.18366 6.52508 4.25033 7.95842 3.94199V3.44199C7.95842 2.83366 8.45842 2.33366 9.06675 2.33366H9.07508C9.68342 2.33366 10.1834 2.83366 10.1834 3.44199V3.95866C11.3334 4.24199 12.0584 4.95866 12.3751 5.84199C12.5417 6.30033 12.1917 6.78366 11.7001 6.78366H11.4834C11.1751 6.78366 10.9251 6.56699 10.8417 6.26699C10.6501 5.63366 10.1251 5.22533 9.07508 5.22533C7.82508 5.22533 7.07508 5.79199 7.07508 6.59199C7.07508 7.29199 7.61675 7.75033 9.30008 8.18366C10.9834 8.61699 12.7834 9.34199 12.7834 11.442C12.7667 12.967 11.6251 13.8003 10.1751 14.0753Z" fill="black"/>
</svg>
