<svg width="17" height="12" viewBox="0 0 17 12" fill="none" xmlns="http://www.w3.org/2000/svg">
<path d="M15.8001 1.23366L15.7501 1.18366C15.4251 0.858659 14.8918 0.875326 14.5918 1.21699L12.7751 3.25866C11.0668 1.33366 8.69178 0.166992 6.00845 0.166992C3.92511 0.166992 1.98345 0.891992 0.383447 2.08366C-0.00821954 2.37533 -0.0498861 2.95033 0.291781 3.29199L0.34178 3.34199C0.616781 3.61699 1.05845 3.66699 1.36678 3.43366C2.69178 2.43366 4.28345 1.83366 6.00845 1.83366C8.29178 1.83366 10.2501 2.88366 11.6501 4.53366L9.25011 7.23366L6.50845 4.49199C6.18345 4.16699 5.65845 4.16699 5.33345 4.49199L0.233447 9.60032C-0.0748861 9.90866 -0.0748861 10.417 0.233447 10.7253L0.358447 10.8503C0.66678 11.1587 1.17511 11.1587 1.48345 10.8503L5.91678 6.40866L8.62511 9.11699C8.96678 9.45866 9.51678 9.44199 9.83345 9.08366L12.6251 5.95033C13.1418 6.88366 13.5251 7.94199 13.7251 9.05866C13.7918 9.45033 14.1168 9.74199 14.5168 9.74199H14.5918C15.0918 9.74199 15.4668 9.28366 15.3751 8.79199C15.1084 7.25033 14.5584 5.84199 13.8001 4.62533L15.8334 2.33366C16.1168 2.01699 16.1001 1.53366 15.8001 1.23366Z" fill="black"/>
</svg>
