<svg width="20" height="20" viewBox="0 0 20 20" fill="none" xmlns="http://www.w3.org/2000/svg">
<g clip-path="url(#clip0_1578_2848)">
<rect width="20" height="20" fill="white" fill-opacity="0.01"/>
<path d="M9.29177 2.83359L6.19177 7.90026C5.8501 8.45026 6.2501 9.16693 6.9001 9.16693H13.0918C13.7418 9.16693 14.1418 8.45026 13.8001 7.90026L10.7084 2.83359C10.3834 2.30026 9.61677 2.30026 9.29177 2.83359Z" fill="black"/>
<path d="M14.5833 18.334C16.6543 18.334 18.3333 16.6551 18.3333 14.584C18.3333 12.5129 16.6543 10.834 14.5833 10.834C12.5122 10.834 10.8333 12.5129 10.8333 14.584C10.8333 16.6551 12.5122 18.334 14.5833 18.334Z" fill="black"/>
<path d="M3.33333 17.9167H8.33333C8.79167 17.9167 9.16667 17.5417 9.16667 17.0833V12.0833C9.16667 11.625 8.79167 11.25 8.33333 11.25H3.33333C2.875 11.25 2.5 11.625 2.5 12.0833V17.0833C2.5 17.5417 2.875 17.9167 3.33333 17.9167Z" fill="black"/>
</g>
<defs>
<clipPath id="clip0_1578_2848">
<rect width="20" height="20" fill="white"/>
</clipPath>
</defs>
</svg>
