<svg width="18" height="12" viewBox="0 0 18 12" fill="none" xmlns="http://www.w3.org/2000/svg">
<path d="M16.9834 9.40866L16.0751 3.02533C15.8418 1.38366 14.4334 0.166992 12.7751 0.166992H5.22509C3.56676 0.166992 2.15843 1.38366 1.92509 3.02533L1.01676 9.40866C0.833428 10.692 1.8251 11.8337 3.11676 11.8337C3.68343 11.8337 4.21676 11.6087 4.61676 11.2087L6.50009 9.33366H11.5001L13.3751 11.2087C13.7751 11.6087 14.3168 11.8337 14.8751 11.8337C16.1751 11.8337 17.1668 10.692 16.9834 9.40866ZM8.16676 5.16699H6.50009V6.83366H5.66676V5.16699H4.0001V4.33366H5.66676V2.66699H6.50009V4.33366H8.16676V5.16699ZM11.5001 4.33366C11.0418 4.33366 10.6668 3.95866 10.6668 3.50033C10.6668 3.04199 11.0418 2.66699 11.5001 2.66699C11.9584 2.66699 12.3334 3.04199 12.3334 3.50033C12.3334 3.95866 11.9584 4.33366 11.5001 4.33366ZM13.1668 6.83366C12.7084 6.83366 12.3334 6.45866 12.3334 6.00033C12.3334 5.54199 12.7084 5.16699 13.1668 5.16699C13.6251 5.16699 14.0001 5.54199 14.0001 6.00033C14.0001 6.45866 13.6251 6.83366 13.1668 6.83366Z" fill="black"/>
</svg>
