<svg width="20" height="16" viewBox="0 0 20 16" fill="none" xmlns="http://www.w3.org/2000/svg">
<path d="M19.1917 10.8552C19.1841 10.4567 19.099 10.0633 18.941 9.6966C18.7353 9.24732 18.3972 8.8701 17.9711 8.61441C17.545 8.35873 17.0508 8.23653 16.5533 8.26384C16.0726 8.26384 15.592 8.26384 15.1113 8.26384H14.3171C14.053 7.82997 13.682 7.46951 13.2388 7.21623C12.7956 6.96294 12.2948 6.82509 11.7832 6.81556C10.6964 6.76384 9.55747 6.75867 8.3976 6.81556C7.87265 6.81489 7.35641 6.94831 6.89879 7.20293C6.44116 7.45754 6.05763 7.82474 5.78527 8.26901H3.54389C3.0429 8.26338 2.54921 8.38825 2.11233 8.63108C1.71617 8.8492 1.38939 9.17247 1.16878 9.56451C0.94817 9.95654 0.842487 10.4018 0.863639 10.85C0.863639 11.4914 0.863639 12.1276 0.863639 12.769V13.6587C0.844265 13.7881 0.855765 13.9202 0.897225 14.0444C0.938686 14.1686 1.00896 14.2815 1.1024 14.374C1.19584 14.4665 1.30987 14.5361 1.43534 14.5771C1.56082 14.6182 1.69425 14.6296 1.82497 14.6104H5.36207C5.35084 14.7332 5.36763 14.8569 5.4112 14.9724C5.45478 15.0879 5.52403 15.1922 5.61383 15.2776C5.70362 15.363 5.81167 15.4274 5.92997 15.4659C6.04827 15.5044 6.1738 15.5161 6.29728 15.5H10.4248C10.8793 15.5 11.1823 15.5 11.3861 15.5C11.5149 15.5073 11.644 15.5073 11.7727 15.5H13.9044C14.0203 15.5061 14.1363 15.4878 14.2446 15.4464C14.3529 15.4051 14.4512 15.3416 14.5331 15.2601C14.6149 15.1785 14.6785 15.0809 14.7196 14.9734C14.7607 14.8659 14.7785 14.751 14.7717 14.6363L18.2983 14.6104C18.4214 14.6225 18.5457 14.6073 18.6622 14.5661C18.7786 14.5249 18.8844 14.4586 18.9719 14.372C19.0593 14.2854 19.1263 14.1807 19.1679 14.0654C19.2096 13.9501 19.2248 13.8271 19.2126 13.7052V12.95C19.2074 12.2569 19.2074 11.5483 19.1917 10.8552ZM5.36207 12.9914H2.49373V10.9225C2.49319 10.7957 2.50545 10.6692 2.53031 10.5449C2.57061 10.3612 2.67484 10.1973 2.82478 10.082C2.97471 9.96665 3.16081 9.90713 3.35057 9.91384C3.91484 9.8828 4.5 9.88797 5.10606 9.91384H5.36207V12.9914ZM10.4613 13.8966H10.2889H6.99216V12.4173C6.99216 11.5276 6.99216 10.6328 6.99216 9.74314C6.97939 9.53022 7.0257 9.3179 7.12608 9.12917C7.22646 8.94044 7.3771 8.78251 7.56166 8.67246C7.87438 8.4768 8.23666 8.37279 8.60659 8.37246C9.53135 8.37246 10.5136 8.37246 11.4854 8.37246C11.9483 8.3561 12.399 8.52157 12.7393 8.8328C12.8314 8.90837 12.9047 9.00395 12.9535 9.11212C13.0302 9.4518 13.0705 9.79855 13.0737 10.1466C13.0737 10.8138 13.0737 11.4863 13.0737 12.1587V13.3949C13.0765 13.5315 13.087 13.668 13.105 13.8035C13.105 13.8035 13.105 13.8552 13.105 13.8811L10.4613 13.8966ZM17.5721 12.9863H14.7665V9.8828H15.0172C15.5397 9.8828 16.1249 9.8828 16.6682 9.8828C16.872 9.9097 17.0688 9.97464 17.2482 10.0742C17.3601 10.1283 17.452 10.2158 17.511 10.3244C17.5701 10.4329 17.5933 10.5571 17.5773 10.6794C17.5773 11.3311 17.5773 11.988 17.5773 12.6552L17.5721 12.9863ZM10.0643 0.500042C9.4887 0.500042 8.92605 0.669015 8.44748 0.985588C7.96891 1.30216 7.59591 1.75212 7.37565 2.27856C7.15539 2.805 7.09776 3.38428 7.21005 3.94314C7.32234 4.50201 7.5995 5.01536 8.00649 5.41828C8.41348 5.8212 8.93201 6.09559 9.49653 6.20675C10.061 6.31792 10.6462 6.26087 11.1779 6.04281C11.7097 5.82475 12.1642 5.45548 12.484 4.9817C12.8037 4.50792 12.9744 3.9509 12.9744 3.38108C12.9765 3.00216 12.9026 2.6266 12.7571 2.27613C12.6116 1.92565 12.3973 1.60723 12.1267 1.33929C11.856 1.07135 11.5344 0.859217 11.1804 0.71516C10.8264 0.571103 10.447 0.497985 10.0643 0.500042ZM10.9734 4.28108C10.855 4.40062 10.7135 4.49524 10.5572 4.55924C10.401 4.62324 10.2333 4.6553 10.0643 4.65349C9.73688 4.63284 9.42972 4.48953 9.20525 4.25269C8.98078 4.01585 8.85585 3.70326 8.85585 3.37849C8.85585 3.05372 8.98078 2.74114 9.20525 2.5043C9.42972 2.26746 9.73688 2.12415 10.0643 2.10349C10.4034 2.10754 10.7274 2.24306 10.9667 2.48096C11.206 2.71886 11.3416 3.04016 11.3443 3.3759C11.3451 3.5439 11.3122 3.71038 11.2477 3.86573C11.1831 4.02109 11.0881 4.16225 10.9681 4.28108H10.9734ZM4.70377 3.16384C4.09297 3.16564 3.50741 3.40532 3.07367 3.83108C2.75067 4.14989 2.53028 4.55626 2.44028 4.99892C2.35027 5.44159 2.39469 5.90073 2.56793 6.31843C2.74117 6.73614 3.03548 7.09369 3.41372 7.34602C3.79197 7.59834 4.23722 7.73413 4.69332 7.73625C4.99658 7.73558 5.29674 7.67576 5.57665 7.56024C5.85657 7.44472 6.11075 7.27575 6.32471 7.06298C6.53866 6.8502 6.70819 6.5978 6.82361 6.32016C6.93903 6.04253 6.99808 5.7451 6.99739 5.44487C6.99602 5.14396 6.9348 4.84627 6.81721 4.56878C6.69963 4.2913 6.528 4.03946 6.3121 3.82765C6.09621 3.61583 5.84028 3.44819 5.55895 3.33429C5.27761 3.2204 4.97636 3.16248 4.67241 3.16384H4.70377ZM5.17398 5.94142C5.11269 6.00594 5.03794 6.05648 4.95494 6.08953C4.87194 6.12258 4.78266 6.13734 4.69332 6.1328C4.51041 6.1328 4.33499 6.06087 4.20566 5.93283C4.07632 5.80479 4.00366 5.63113 4.00366 5.45005C4.00366 5.26897 4.07632 5.09531 4.20566 4.96726C4.33499 4.83922 4.51041 4.76728 4.69332 4.76728C4.83004 4.76896 4.96318 4.81084 5.07581 4.88759C5.18844 4.96434 5.27548 5.07251 5.32588 5.19835C5.37627 5.32419 5.38774 5.46202 5.35884 5.59433C5.32993 5.72664 5.26195 5.84745 5.16353 5.94142H5.17398ZM17.034 3.83108C16.821 3.61746 16.5671 3.44798 16.2872 3.33253C16.0074 3.21709 15.7071 3.15798 15.4039 3.15866C14.8667 3.15637 14.3455 3.33868 13.929 3.67448C13.5125 4.01027 13.2266 4.47874 13.1201 4.99995C13.0137 5.52115 13.0932 6.06278 13.3451 6.53241C13.5971 7.00204 14.0058 7.37057 14.5017 7.57509C14.9975 7.77961 15.5496 7.80746 16.0638 7.65388C16.5781 7.5003 17.0225 7.17481 17.3214 6.73296C17.6203 6.29111 17.755 5.76029 17.7025 5.23107C17.6501 4.70185 17.4138 4.20704 17.034 3.83108ZM15.895 5.92591C15.7637 6.04447 15.5912 6.10826 15.4135 6.10397C15.2358 6.09968 15.0667 6.02765 14.9413 5.9029C14.816 5.77815 14.7441 5.61031 14.7408 5.43439C14.7374 5.25847 14.8027 5.08804 14.9232 4.95866C15.0202 4.86532 15.1428 4.80228 15.2757 4.77739C15.4086 4.75251 15.546 4.76687 15.6707 4.81869C15.7955 4.87051 15.9021 4.95751 15.9772 5.06885C16.0524 5.18019 16.0928 5.31095 16.0935 5.44487C16.0956 5.53503 16.0791 5.62466 16.045 5.70827C16.0108 5.79187 15.9598 5.86769 15.895 5.93108V5.92591ZM12.6243 10.1983C12.6312 10.4156 12.5526 10.627 12.4049 10.788L11.6682 11.6259L10.9838 12.4069C10.8218 12.5931 10.6651 12.7845 10.5084 12.9759L10.3882 13.1207C10.3146 13.211 10.2226 13.2849 10.1181 13.3375C10.0137 13.3901 9.89919 13.4202 9.78214 13.4259C9.66693 13.4283 9.55242 13.4076 9.44555 13.3649C9.33868 13.3222 9.24168 13.2585 9.1604 13.1776C8.67973 12.7018 8.19384 12.2156 7.71839 11.7294C7.64395 11.655 7.58504 11.5668 7.54501 11.4699C7.50499 11.373 7.48463 11.2692 7.48512 11.1645C7.4856 11.0598 7.50691 10.9562 7.54783 10.8596C7.58876 10.7631 7.64849 10.6755 7.72362 10.6018C7.79875 10.5281 7.8878 10.4697 7.9857 10.4301C8.0836 10.3905 8.18843 10.3703 8.29419 10.3708C8.39995 10.3713 8.50458 10.3924 8.60211 10.4329C8.69964 10.4734 8.78815 10.5326 8.86259 10.6069L9.5627 11.2949L9.69854 11.4294L11.0047 9.95005L11.198 9.73281C11.2665 9.65096 11.3508 9.58342 11.4458 9.5341C11.5409 9.48478 11.645 9.45466 11.752 9.44552C11.8589 9.43637 11.9666 9.44838 12.0689 9.48082C12.1711 9.51327 12.2658 9.56552 12.3474 9.63453C12.4311 9.70505 12.4989 9.79209 12.5466 9.89006C12.5943 9.98804 12.6207 10.0948 12.6243 10.2035V10.1983Z" fill="black"/>
</svg>
