<svg width="20" height="20" viewBox="0 0 20 20" fill="none" xmlns="http://www.w3.org/2000/svg">
<g clip-path="url(#clip0_1836_16037)">
<rect width="20" height="20" fill="white" fill-opacity="0.01"/>
<path d="M16.666 3.3335H3.33268C2.40768 3.3335 1.67435 4.07516 1.67435 5.00016L1.66602 15.0002C1.66602 15.9252 2.40768 16.6668 3.33268 16.6668H16.666C17.591 16.6668 18.3327 15.9252 18.3327 15.0002V5.00016C18.3327 4.07516 17.591 3.3335 16.666 3.3335ZM15.8327 15.0002H4.16602C3.70768 15.0002 3.33268 14.6252 3.33268 14.1668V10.0002H16.666V14.1668C16.666 14.6252 16.291 15.0002 15.8327 15.0002ZM16.666 6.66683H3.33268V5.8335C3.33268 5.37516 3.70768 5.00016 4.16602 5.00016H15.8327C16.291 5.00016 16.666 5.37516 16.666 5.8335V6.66683Z" fill="black"/>
</g>
<defs>
<clipPath id="clip0_1836_16037">
<rect width="20" height="20" fill="white"/>
</clipPath>
</defs>
</svg>
