<svg width="16" height="18" viewBox="0 0 16 18" fill="none" xmlns="http://www.w3.org/2000/svg">
<path d="M9.66667 6.50016H6.33333C5.875 6.50016 5.5 6.12516 5.5 5.66683C5.5 5.2085 5.875 4.8335 6.33333 4.8335H9.66667C10.125 4.8335 10.5 5.2085 10.5 5.66683C10.5 6.12516 10.125 6.50016 9.66667 6.50016Z" fill="black"/>
<path d="M9.66667 9.00016H6.33333C5.875 9.00016 5.5 8.62516 5.5 8.16683C5.5 7.7085 5.875 7.3335 6.33333 7.3335H9.66667C10.125 7.3335 10.5 7.7085 10.5 8.16683C10.5 8.62516 10.125 9.00016 9.66667 9.00016Z" fill="black"/>
<path d="M14.25 1.91675L13 0.666748L11.75 1.91675L10.5 0.666748L9.25 1.91675L8 0.666748L6.75 1.91675L5.5 0.666748L4.25 1.91675L3 0.666748V12.3334H1.33333C0.875 12.3334 0.5 12.7084 0.5 13.1667V14.8334C0.5 16.2167 1.61667 17.3334 3 17.3334H13C14.3833 17.3334 15.5 16.2167 15.5 14.8334V0.666748L14.25 1.91675ZM10.5 15.6667H3C2.54167 15.6667 2.16667 15.2917 2.16667 14.8334V14.0001H4.66667H8H10.5V15.6667ZM13.8333 14.8334C13.8333 15.2917 13.4583 15.6667 13 15.6667C12.5417 15.6667 12.1667 15.2917 12.1667 14.8334V13.1667C12.1667 12.7084 11.7917 12.3334 11.3333 12.3334H9.66667H8H4.66667V3.16675H13.8333V14.8334Z" fill="black"/>
<path d="M12.1673 6.50016C12.6276 6.50016 13.0007 6.12707 13.0007 5.66683C13.0007 5.20659 12.6276 4.8335 12.1673 4.8335C11.7071 4.8335 11.334 5.20659 11.334 5.66683C11.334 6.12707 11.7071 6.50016 12.1673 6.50016Z" fill="black"/>
<path d="M12.1673 9.00016C12.6276 9.00016 13.0007 8.62707 13.0007 8.16683C13.0007 7.70659 12.6276 7.3335 12.1673 7.3335C11.7071 7.3335 11.334 7.70659 11.334 8.16683C11.334 8.62707 11.7071 9.00016 12.1673 9.00016Z" fill="black"/>
</svg>
