<svg width="17" height="20" viewBox="0 0 17 20" fill="none" xmlns="http://www.w3.org/2000/svg">
<path d="M11.5001 0.833008H2.33341C1.41675 0.833008 0.666748 1.58301 0.666748 2.49967V13.333C0.666748 13.7913 1.04175 14.1663 1.50008 14.1663C1.95841 14.1663 2.33341 13.7913 2.33341 13.333V3.33301C2.33341 2.87467 2.70841 2.49967 3.16675 2.49967H11.5001C11.9584 2.49967 12.3334 2.12467 12.3334 1.66634C12.3334 1.20801 11.9584 0.833008 11.5001 0.833008ZM11.9917 4.65801L16.0167 8.68301C16.3251 8.99134 16.5001 9.41634 16.5001 9.85801V17.4997C16.5001 18.4163 15.7501 19.1663 14.8334 19.1663H5.65841C4.74175 19.1663 4.00008 18.4163 4.00008 17.4997L4.00841 5.83301C4.00841 4.91634 4.75008 4.16634 5.66675 4.16634H10.8084C11.2501 4.16634 11.6751 4.34134 11.9917 4.65801ZM11.5001 9.99967H15.2501L10.6667 5.41634V9.16634C10.6667 9.62467 11.0417 9.99967 11.5001 9.99967Z" fill="black"/>
</svg>
