<svg width="18" height="14" viewBox="0 0 18 14" fill="none" xmlns="http://www.w3.org/2000/svg">
<path d="M12.1917 5.57467L10.4251 3.80801C10.1001 3.48301 10.1001 2.95801 10.4251 2.63301C10.7501 2.30801 11.2751 2.30801 11.6001 2.63301L12.7751 3.80801L15.7251 0.858008C16.0501 0.533008 16.5751 0.533008 16.9001 0.858008C17.2251 1.18301 17.2251 1.70801 16.9001 2.03301L13.3667 5.56634C13.0417 5.89967 12.5167 5.89967 12.1917 5.57467ZM7.33342 2.83301H1.50008C1.04175 2.83301 0.666748 3.20801 0.666748 3.66634C0.666748 4.12467 1.04175 4.49967 1.50008 4.49967H7.33342C7.79175 4.49967 8.16675 4.12467 8.16675 3.66634C8.16675 3.20801 7.79175 2.83301 7.33342 2.83301ZM15.9084 7.59134C15.5834 7.26634 15.0584 7.26634 14.7334 7.59134L13.1667 9.15801L11.6001 7.59134C11.2751 7.26634 10.7501 7.26634 10.4251 7.59134C10.1001 7.91634 10.1001 8.44134 10.4251 8.76634L11.9917 10.333L10.4251 11.8997C10.1001 12.2247 10.1001 12.7497 10.4251 13.0747C10.7501 13.3997 11.2751 13.3997 11.6001 13.0747L13.1667 11.508L14.7334 13.0747C15.0584 13.3997 15.5834 13.3997 15.9084 13.0747C16.2334 12.7497 16.2334 12.2247 15.9084 11.8997L14.3417 10.333L15.9084 8.76634C16.2334 8.44134 16.2334 7.91634 15.9084 7.59134ZM7.33342 9.49967H1.50008C1.04175 9.49967 0.666748 9.87467 0.666748 10.333C0.666748 10.7913 1.04175 11.1663 1.50008 11.1663H7.33342C7.79175 11.1663 8.16675 10.7913 8.16675 10.333C8.16675 9.87467 7.79175 9.49967 7.33342 9.49967Z" fill="black"/>
</svg>
