<svg width="20" height="12" viewBox="0 0 20 12" fill="none" xmlns="http://www.w3.org/2000/svg">
<path d="M13.3333 5.16699C14.7166 5.16699 15.8249 4.05033 15.8249 2.66699C15.8249 1.28366 14.7166 0.166992 13.3333 0.166992C11.9499 0.166992 10.8333 1.28366 10.8333 2.66699C10.8333 4.05033 11.9499 5.16699 13.3333 5.16699ZM6.66658 5.16699C8.04992 5.16699 9.15825 4.05033 9.15825 2.66699C9.15825 1.28366 8.04992 0.166992 6.66658 0.166992C5.28325 0.166992 4.16658 1.28366 4.16658 2.66699C4.16658 4.05033 5.28325 5.16699 6.66658 5.16699ZM6.66658 6.83366C4.72492 6.83366 0.833252 7.80866 0.833252 9.75033V11.0003C0.833252 11.4587 1.20825 11.8337 1.66659 11.8337H11.6666C12.1249 11.8337 12.4999 11.4587 12.4999 11.0003V9.75033C12.4999 7.80866 8.60825 6.83366 6.66658 6.83366ZM13.3333 6.83366C13.0916 6.83366 12.8166 6.85033 12.5249 6.87533C12.5416 6.88366 12.5499 6.90033 12.5583 6.90866C13.5083 7.60033 14.1666 8.52532 14.1666 9.75033V11.0003C14.1666 11.292 14.1083 11.5753 14.0166 11.8337H18.3333C18.7916 11.8337 19.1666 11.4587 19.1666 11.0003V9.75033C19.1666 7.80866 15.2749 6.83366 13.3333 6.83366Z" fill="black"/>
</svg>
