<svg width="20" height="16" viewBox="0 0 20 16" fill="none" xmlns="http://www.w3.org/2000/svg">
<path d="M14.9999 8C14.5416 8 14.1666 8.375 14.1666 8.83333V10.5H12.4999C12.0416 10.5 11.6666 10.875 11.6666 11.3333C11.6666 11.7917 12.0416 12.1667 12.4999 12.1667H14.9999C15.4583 12.1667 15.8333 11.7917 15.8333 11.3333V8.83333C15.8333 8.375 15.4583 8 14.9999 8ZM5.83325 5.5H7.49992C7.95825 5.5 8.33325 5.125 8.33325 4.66667C8.33325 4.20833 7.95825 3.83333 7.49992 3.83333H4.99992C4.54158 3.83333 4.16658 4.20833 4.16658 4.66667V7.16667C4.16658 7.625 4.54158 8 4.99992 8C5.45825 8 5.83325 7.625 5.83325 7.16667V5.5ZM17.4999 0.5H2.49992C1.58325 0.5 0.833252 1.25 0.833252 2.16667V13.8333C0.833252 14.75 1.58325 15.5 2.49992 15.5H17.4999C18.4166 15.5 19.1666 14.75 19.1666 13.8333V2.16667C19.1666 1.25 18.4166 0.5 17.4999 0.5ZM16.6666 13.8417H3.33325C2.87492 13.8417 2.49992 13.4667 2.49992 13.0083V2.99167C2.49992 2.53333 2.87492 2.15833 3.33325 2.15833H16.6666C17.1249 2.15833 17.4999 2.53333 17.4999 2.99167V13.0083C17.4999 13.4667 17.1249 13.8417 16.6666 13.8417Z" fill="black"/>
</svg>
